<svg width="29" height="28" viewBox="0 0 29 28" fill="none" xmlns="http://www.w3.org/2000/svg">
<ellipse cx="14.0825" cy="17.0732" rx="2.04878" ry="2.04878" fill="#3085FF"/>
<circle cx="18.863" cy="17.0732" r="1.36585" fill="#9EC0F1"/>
<path d="M10.6679 11.6098V11.2683V9.561C10.6679 7.67515 12.1967 6.14636 14.0825 6.14636C15.9684 6.14636 17.4972 7.67515 17.4972 9.561V11.2683V11.6098" stroke="#3085FF" stroke-width="2"/>
<ellipse cx="22.9606" cy="17.0732" rx="1.36585" ry="1.36585" fill="#C9DFFF"/>
<path d="M20.2289 19.5948V20.3828C20.2289 21.1951 19.5814 21.8537 18.7827 21.8537H9.38242C8.5837 21.8537 7.93622 21.1951 7.93622 20.3828V13.7636C7.93622 12.9513 8.5837 12.2927 9.38242 12.2927H18.7827C19.5814 12.2927 20.2289 12.9513 20.2289 13.7636V13.8162" stroke="#355E9A" stroke-width="2" stroke-linecap="round" stroke-linejoin="round"/>
</svg>
