<svg width="73" height="75" viewBox="0 0 73 75" fill="none" xmlns="http://www.w3.org/2000/svg">
<path d="M1.11799 63.3734C3.89239 70.1436 8.41609 71.5529 11.5966 70.1436C17.7476 67.4183 33.7258 64.3733 50.1359 71.5308C71.8702 81.0107 76.4946 66.7081 69.5581 52.2406C62.6216 37.7732 60.2705 23.1426 68.2669 15.082C76.2634 7.02144 65.7992 -5.58826 47.216 7.53756C35.2068 16.0199 26.3934 14.1311 21.6607 11.7332C17.2002 9.47327 12.2397 7.11059 7.59208 8.95536C1.95276 11.1939 -0.269311 16.0472 8.31067 26.8894C20.4692 42.2538 -5.1012 48.1981 1.11799 63.3734Z" fill="#DEE9FF"/>
<path d="M12.4146 30.3934H55.5927V63.6C55.5927 63.6676 55.5658 63.7325 55.518 63.7803C55.4702 63.8281 55.4053 63.855 55.3377 63.855H12.6696C12.6019 63.855 12.5371 63.8281 12.4892 63.7803C12.4414 63.7325 12.4146 63.6676 12.4146 63.6V30.3934Z" fill="#A2BDFF"/>
<path d="M44.7607 17.3806H24.6838L12.4146 30.3934H55.5927L44.7607 17.3806Z" fill="#418DF9"/>
<path d="M16.5043 12.1754L24.6837 17.3806L12.4145 30.3934L3.11963 23.3293L16.5043 12.1754Z" fill="#699CFF"/>
<path d="M52.9402 12.1754L44.7607 17.3806L55.5927 30.3934L66.3248 23.3293L52.9402 12.1754Z" fill="#699CFF"/>
<path d="M29.9585 12.4415C30.1893 12.3321 30.3689 12.1377 30.4597 11.8989C30.5506 11.6602 30.5456 11.3956 30.4459 11.1604L26.7663 2.48385C26.7141 2.36095 26.6377 2.24986 26.5416 2.15726C26.4454 2.06465 26.3315 1.99245 26.2068 1.94499C26.082 1.89753 25.9489 1.8758 25.8155 1.88109C25.6821 1.88638 25.5512 1.91859 25.4306 1.97579L24.7217 2.31193C24.6011 2.36912 24.4932 2.45011 24.4047 2.55004C24.3162 2.64996 24.2488 2.76675 24.2066 2.89339C24.1644 3.02003 24.1482 3.15389 24.159 3.28694C24.1699 3.41999 24.2075 3.54948 24.2697 3.66761L28.6581 12.0079C28.7771 12.234 28.9788 12.4054 29.2211 12.4862C29.4635 12.567 29.7277 12.551 29.9585 12.4415Z" fill="#418DF9"/>
<path d="M34.5718 11.6004C34.7389 11.5885 34.8949 11.5125 35.0072 11.3883C35.1196 11.2641 35.1796 11.1013 35.1747 10.9339L34.9929 4.75699C34.9904 4.6695 34.9701 4.58343 34.9334 4.50396C34.8967 4.42448 34.8444 4.35325 34.7794 4.29454C34.7145 4.23583 34.6384 4.19085 34.5556 4.16231C34.4729 4.13377 34.3852 4.12226 34.2979 4.12846L33.7847 4.16503C33.6974 4.17125 33.6123 4.19504 33.5345 4.23499C33.4566 4.27493 33.3876 4.33021 33.3317 4.39748C33.2757 4.46476 33.234 4.54266 33.2089 4.62649C33.1838 4.71032 33.1759 4.79835 33.1857 4.88531L33.8807 11.0257C33.8995 11.1922 33.9819 11.3449 34.1107 11.452C34.2395 11.5592 34.4047 11.6123 34.5718 11.6004Z" fill="#418DF9"/>
<path d="M38.1331 13.8838C38.5926 14.1495 39.2377 13.9057 39.5954 13.3311L45.9483 3.12836C46.3277 2.51886 46.2378 1.77599 45.7505 1.49422L45.0712 1.10152C44.5838 0.819694 43.8951 1.11233 43.5562 1.74529L37.8827 12.3406C37.5631 12.9374 37.6736 13.6181 38.1331 13.8838Z" fill="#418DF9"/>
</svg>
