<svg width="112" height="112" viewBox="0 0 112 112" fill="none" xmlns="http://www.w3.org/2000/svg">
<path d="M60.8648 102.101C63.5394 102.101 65.7077 99.9323 65.7077 97.2576V5.10719C65.7077 2.43253 63.5394 0.264282 60.8648 0.264282H4.84291C2.16825 0.264063 0 2.43253 0 5.10719V97.2576C0 99.9323 2.16825 102.101 4.84291 102.101H73.7054H73.7076H60.8648Z" fill="#FFE07D"/>
<path d="M73.7056 0.264282H59.4003C62.0749 0.264282 64.2432 2.43253 64.2432 5.10719V97.2576C64.2432 99.9323 62.0749 102.101 59.4003 102.101H73.7056C76.3803 102.101 78.5485 99.9323 78.5485 97.2576V5.10719C78.5485 2.43253 76.3803 0.264282 73.7056 0.264282Z" fill="#FFD064"/>
<path d="M75.866 106.893V14.7424C75.866 12.0678 73.6977 9.89954 71.0231 9.89954H35.6763C33.8336 9.89954 32.0665 10.6315 30.7634 11.9346L11.6703 31.0277C10.3674 32.3306 9.63525 34.0979 9.63525 35.9406V106.893C9.63525 109.568 11.8035 111.736 14.4782 111.736H71.0228C73.6977 111.736 75.866 109.568 75.866 106.893Z" fill="#F4FBFF"/>
<path d="M83.3409 9.89954H69.0701C71.7447 9.89954 73.913 12.0678 73.913 14.7424V106.893C73.913 109.568 71.7447 111.736 69.0701 111.736H83.3409C86.0155 111.736 88.1838 109.568 88.1838 106.893V14.7424C88.1838 12.0678 86.0155 9.89954 83.3409 9.89954Z" fill="#E4F6FF"/>
<path d="M27.9556 33.0625C30.6303 33.0625 32.7985 30.8943 32.7985 28.2196V10.5254C32.0484 10.8669 31.3574 11.3405 30.7635 11.9344L11.6703 31.0277C11.0764 31.6216 10.6026 32.3127 10.2614 33.0628H27.9556V33.0625Z" fill="#E28086"/>
<path d="M76.1799 22.9471H48.2797C46.9906 22.9471 45.9456 23.9921 45.9456 25.2812V29.8526C45.9456 31.1417 46.9906 32.1867 48.2797 32.1867H76.1802C77.4692 32.1867 78.5142 31.1417 78.5142 29.8526V25.2812C78.514 23.9921 77.469 22.9471 76.1799 22.9471Z" fill="#CBE2FF"/>
<path d="M76.1799 32.1867C77.469 32.1867 78.514 31.1417 78.514 29.8526V25.2812C78.514 23.9921 77.469 22.9471 76.1799 22.9471H73.913V32.1865H76.1799V32.1867Z" fill="#BED8FB"/>
<path d="M45.9456 62.7281H19.3054C18.3717 62.7281 17.6153 61.9715 17.6153 61.0381C17.6153 60.1047 18.372 59.348 19.3054 59.348H45.9458C46.8795 59.348 47.6359 60.1047 47.6359 61.0381C47.6359 61.9715 46.8792 62.7281 45.9456 62.7281Z" fill="#407093"/>
<path d="M45.9455 74.0554H19.3053C18.3717 74.0554 17.6152 73.2988 17.6152 72.3654C17.6152 71.4319 18.3719 70.6753 19.3053 70.6753H45.9458C46.8794 70.6753 47.6358 71.4319 47.6358 72.3654C47.6358 73.2988 46.8792 74.0554 45.9455 74.0554Z" fill="#407093"/>
<path d="M45.9455 85.3831H19.3053C18.3717 85.3831 17.6152 84.6264 17.6152 83.693C17.6152 82.7596 18.3719 82.0029 19.3053 82.0029H45.9458C46.8794 82.0029 47.6358 82.7596 47.6358 83.693C47.6358 84.6264 46.8792 85.3831 45.9455 85.3831Z" fill="#407093"/>
<path d="M32.7985 96.7106H19.3053C18.3717 96.7106 17.6152 95.9539 17.6152 95.0205C17.6152 94.0871 18.3719 93.3304 19.3053 93.3304H32.7985C33.7321 93.3304 34.4885 94.0871 34.4885 95.0205C34.4885 95.9539 33.7319 96.7106 32.7985 96.7106Z" fill="#407093"/>
<path d="M111.939 58.214V54.6203C111.939 52.8062 110.468 51.3358 108.654 51.3358C107.232 51.3358 105.978 50.4193 105.532 49.0691C105.167 47.9629 104.722 46.8934 104.203 45.8671C103.566 44.6071 103.822 43.0791 104.82 42.0807L104.82 42.0803C106.103 40.7975 106.103 38.7179 104.82 37.4351L102.279 34.8941C100.997 33.6114 98.917 33.6114 97.6343 34.8941L97.6338 34.8946C96.6354 35.8929 95.1075 36.1487 93.8475 35.5117C92.8213 34.993 91.7516 34.5476 90.6454 34.1825C89.2953 33.7369 88.3787 32.4822 88.3787 31.0605C88.3787 29.2464 86.9081 27.776 85.0942 27.776H81.5006C79.6865 27.776 78.2158 29.2467 78.2158 31.0605C78.2158 32.4822 77.2993 33.7369 75.9491 34.1825C74.8429 34.5476 73.7734 34.993 72.7471 35.5117C71.4871 36.1484 69.9591 35.8927 68.9607 34.8946L68.9603 34.8941C67.6775 33.6114 65.5979 33.6114 64.3151 34.8941L61.7741 37.4351C60.4914 38.7179 60.4914 40.7975 61.7741 42.0803L61.7746 42.0807C62.7729 43.0791 63.0287 44.6071 62.3917 45.8671C61.873 46.8932 61.4276 47.9629 61.0625 49.0691C60.6169 50.4193 59.3622 51.3358 57.9405 51.3358C56.1264 51.3358 54.656 52.8065 54.656 54.6203V58.214C54.656 60.0281 56.1267 61.4987 57.9405 61.4987C59.3622 61.4987 60.6169 62.4153 61.0625 63.7654C61.4276 64.8716 61.873 65.9411 62.3917 66.9675C63.0284 68.2275 62.7727 69.7554 61.7746 70.7538L61.7741 70.7542C60.4914 72.037 60.4914 74.1167 61.7741 75.3994L64.3151 77.9404C65.5979 79.2232 67.6775 79.2232 68.9603 77.9404L68.9607 77.94C69.9591 76.9416 71.4871 76.6859 72.7471 77.3229C73.7732 77.8415 74.8429 78.2869 75.9491 78.652C77.2993 79.0976 78.2158 80.3523 78.2158 81.774C78.2158 83.5881 79.6865 85.0585 81.5006 85.0585H85.0942C86.9083 85.0585 88.3787 83.5879 88.3787 81.774C88.3787 80.3523 89.2953 79.0976 90.6454 78.652C91.7516 78.2869 92.8211 77.8415 93.8475 77.3229C95.1075 76.6861 96.6354 76.9418 97.6338 77.94L97.6343 77.9404C98.917 79.2232 100.997 79.2232 102.279 77.9404L104.82 75.3994C106.103 74.1167 106.103 72.037 104.82 70.7542L104.82 70.7538C103.822 69.7554 103.566 68.2275 104.203 66.9675C104.722 65.9413 105.167 64.8716 105.532 63.7654C105.978 62.4153 107.232 61.4987 108.654 61.4987C110.468 61.4987 111.939 60.0281 111.939 58.214Z" fill="#B9CBEA"/>
<path d="M83.2971 72.8101C92.3507 72.8101 99.69 65.4707 99.69 56.4172C99.69 47.3636 92.3507 40.0243 83.2971 40.0243C74.2436 40.0243 66.9042 47.3636 66.9042 56.4172C66.9042 65.4707 74.2436 72.8101 83.2971 72.8101Z" fill="#CBE2FF"/>
<path d="M83.2971 40.0243C80.764 40.0243 78.3652 40.599 76.2238 41.6247C81.7363 44.2654 85.5434 49.8967 85.5434 56.4172C85.5434 62.9377 81.7365 68.569 76.2238 71.2097C78.3654 72.2357 80.7642 72.8101 83.2971 72.8101C92.3507 72.8101 99.69 65.4708 99.69 56.4172C99.69 47.3638 92.3505 40.0243 83.2971 40.0243Z" fill="#BED8FB"/>
<path d="M83.2971 72.8101C88.3676 72.8101 92.8992 70.5073 95.9061 66.8914C93.5452 62.3311 88.7867 59.213 83.2971 59.213C77.8076 59.213 73.0491 62.3311 70.6882 66.8914C73.6951 70.5073 78.2267 72.8101 83.2971 72.8101Z" fill="#4A80AA"/>
<path d="M83.2972 72.8101C88.3676 72.8101 92.8992 70.5073 95.9062 66.8914C93.8348 62.8906 89.9181 59.9999 85.2815 59.3508C84.3336 64.5965 80.8901 68.9741 76.2245 71.2093C78.3657 72.2354 80.7643 72.8101 83.2972 72.8101Z" fill="#407093"/>
<path d="M83.2972 60.6402C86.6428 60.6402 89.355 57.928 89.355 54.5824C89.355 51.2367 86.6428 48.5245 83.2972 48.5245C79.9515 48.5245 77.2393 51.2367 77.2393 54.5824C77.2393 57.928 79.9515 60.6402 83.2972 60.6402Z" fill="#365E7D"/>
<path d="M83.5238 48.5289C84.8109 50.8693 85.5433 53.5578 85.5433 56.4175C85.5433 57.7836 85.3762 59.1107 85.0612 60.3795C87.5464 59.6241 89.355 57.3146 89.355 54.5826C89.355 51.3127 86.7644 48.6481 83.5238 48.5289Z" fill="#365E7D"/>
</svg>
