<svg width="66" height="68" viewBox="0 0 66 68" fill="none" xmlns="http://www.w3.org/2000/svg">
<path fill-rule="evenodd" clip-rule="evenodd" d="M45.3061 4.01824C42.016 2.7846 38.5153 2.14502 34.9305 2.14502C18.6069 2.14502 5.3739 15.378 5.3739 31.7016C5.3739 33.1856 6.5769 34.3886 8.06087 34.3886C9.54484 34.3886 10.7478 33.1856 10.7478 31.7016C10.7478 18.3459 21.5748 7.51895 34.9305 7.51895C37.8685 7.51895 40.7304 8.04181 43.4194 9.05009C44.8089 9.57108 46.3577 8.86702 46.8787 7.47751C47.3997 6.08801 46.6957 4.53924 45.3061 4.01824ZM64.4873 31.7015C64.4873 30.6987 64.4373 29.7016 64.3379 28.7127C64.1894 27.2362 62.8722 26.1596 61.3956 26.308C59.9191 26.4564 58.8425 27.7737 58.9909 29.2503C59.0724 30.0606 59.1134 30.8783 59.1134 31.7015C59.1134 43.3796 50.7741 53.3313 39.4351 55.4659C37.9768 55.7404 37.0171 57.1452 37.2917 58.6036C37.5662 60.0619 38.971 61.0216 40.4293 60.7471C54.2969 58.1364 64.4873 45.9757 64.4873 31.7015Z" fill="#355E9A"/>
<path fill-rule="evenodd" clip-rule="evenodd" d="M41.6646 2.02848L44.0573 2.44429C49.2021 3.33837 53.8435 5.955 57.9341 10.2211C62.0978 14.5634 64.5113 20.5899 65.228 28.205L65.4653 30.7265L32.1931 35.8557L41.6646 2.02848ZM46.2391 8.58073L45.4817 8.31608L39.6153 29.2725L59.5561 26.2001L59.4605 25.5989C58.6374 20.9667 57.004 17.2887 54.5856 14.52L54.0553 13.9406C51.6159 11.3965 49.0167 9.6195 46.2391 8.58073Z" fill="#3085FF"/>
<path d="M19.6418 62.5789C19.1129 62.3366 18.5046 62.3366 17.9757 62.5789L10.3266 66.0834C8.92848 66.7239 7.36067 65.6126 7.50204 64.0813L8.33246 55.0858C8.38166 54.5529 8.21519 54.0224 7.87028 53.6131L2.1051 46.7721C1.14227 45.6296 1.72661 43.8731 3.18199 43.5351L11.5201 41.5985C12.0688 41.4711 12.5383 41.1182 12.8132 40.6266L17.0632 33.0269C17.8266 31.6618 19.7909 31.6618 20.5543 33.0269L24.8043 40.6266C25.0792 41.1182 25.5487 41.4711 26.0974 41.5985L34.4355 43.5351C35.8909 43.8731 36.4752 45.6296 35.5124 46.7721L29.7472 53.6131C29.4023 54.0224 29.2359 54.5529 29.2851 55.0858L30.1155 64.0813C30.2569 65.6126 28.689 66.7239 27.2909 66.0834L19.6418 62.5789Z" fill="#FFD251"/>
</svg>
