<svg width="66" height="66" viewBox="0 0 66 66" fill="none" xmlns="http://www.w3.org/2000/svg">
<path d="M31.9512 2.02429C35.3932 2.02429 38.7635 2.57017 41.966 3.62737L43.1589 4.04773L41.1209 9.48309C38.2162 8.39396 35.1248 7.82917 31.9512 7.82917C17.5245 7.82917 5.82929 19.5244 5.82929 33.9511C5.82929 48.3779 17.5245 60.0731 31.9512 60.0731C46.378 60.0731 58.0732 48.3779 58.0732 33.9511C58.0732 33.3583 58.0535 32.7682 58.0143 32.1812L57.9409 31.3033L63.7166 30.7227C63.824 31.7909 63.8781 32.8679 63.8781 33.9511C63.8781 51.5838 49.5839 65.8779 31.9512 65.8779C14.3185 65.8779 0.0244141 51.5838 0.0244141 33.9511C0.0244141 16.3184 14.3185 2.02429 31.9512 2.02429Z" fill="#355E9A"/>
<path fill-rule="evenodd" clip-rule="evenodd" d="M39.2253 1.89834L41.8099 2.3475C47.3672 3.31327 52.3808 6.13974 56.7995 10.748C61.2971 15.4384 63.9041 21.9482 64.6783 30.174L64.9346 32.8977L28.9942 38.4382L39.2253 1.89834ZM44.1666 8.97603L43.3485 8.69015L37.0117 31.3271L58.5516 28.0083L58.4483 27.3589C57.5592 22.3552 55.7948 18.3823 53.1824 15.3916L52.6097 14.7657C49.9746 12.0176 47.1669 10.0981 44.1666 8.97603Z" fill="#3085FF"/>
</svg>
