<svg width="18" height="18" viewBox="0 0 18 18" fill="none" xmlns="http://www.w3.org/2000/svg">
<path fill-rule="evenodd" clip-rule="evenodd" d="M9 1.5C13.1421 1.5 16.5 4.85786 16.5 9C16.5 13.1412 13.1437 16.4985 9.00284 16.5L8.99967 16.5L8.99379 16.5C4.85451 16.4966 1.5 13.1401 1.5 9C1.5 4.85786 4.85786 1.5 9 1.5ZM15.0827 9.8158C14.3598 10.1918 13.4076 10.5063 12.3264 10.7231C12.1727 12.2926 11.8092 13.6781 11.2806 14.6986C13.2984 13.8904 14.7871 12.0415 15.0827 9.8158ZM12.4062 9.30981C12.4079 9.20703 12.4088 9.10375 12.4088 9C12.4088 6.73099 11.9958 4.68196 11.2805 3.30127C13.31 4.11415 14.8043 5.97981 15.0878 8.22281C14.767 8.58299 13.7548 9.01088 12.4062 9.30981ZM11.0359 9.54866C11.0421 9.36803 11.0453 9.18502 11.0453 8.99995C11.0453 5.57994 9.95871 2.86359 8.9998 2.86359C8.04089 2.86359 6.95435 5.57994 6.95435 8.99995C6.95435 9.19565 6.9579 9.38905 6.96479 9.57977C7.60447 9.64665 8.28798 9.68192 9.00004 9.68192C9.70089 9.68192 10.3886 9.63249 11.0359 9.54866ZM7.07634 10.9619C7.68807 11.017 8.33238 11.0456 9.00004 11.0456C9.65676 11.0456 10.3038 11.0083 10.9261 10.9393C10.6185 13.3921 9.76819 15.1363 8.9998 15.1363C8.23377 15.1363 7.38628 13.4028 7.07634 10.9619ZM5.59436 9.37517C5.59184 9.25084 5.59058 9.12576 5.59058 9C5.59058 6.73125 6.00343 4.68242 6.71859 3.30174C4.67987 4.11878 3.18156 5.99823 2.9085 8.25523C3.10734 8.50963 3.66001 8.83511 4.50567 9.10067C4.83858 9.20522 5.20317 9.29712 5.59436 9.37517ZM5.67863 10.7801C4.58398 10.5898 3.64537 10.3019 2.93401 9.93138C3.26499 12.105 4.73632 13.9037 6.71852 14.6981C6.19642 13.6901 5.83545 12.326 5.67863 10.7801Z" fill="#3085FF"/>
</svg>
