<svg width="32" height="32" viewBox="0 0 32 32" fill="none" xmlns="http://www.w3.org/2000/svg">
<mask id="mask0_1789_60009" style="mask-type:alpha" maskUnits="userSpaceOnUse" x="0" y="0" width="32" height="32">
<rect x="0.780273" y="0.780273" width="30.439" height="30.439" rx="8.04878" fill="white"/>
</mask>
<g mask="url(#mask0_1789_60009)">
<path d="M22.2434 10.9272C21.8123 10.9272 21.4629 10.5778 21.4629 10.1467C21.4629 9.71565 21.8123 9.36621 22.2434 9.36621H22.6336C23.9268 9.36621 24.9751 10.4145 24.9751 11.7077V22.6345C24.9751 23.9277 23.9268 24.976 22.6336 24.976H22.2434C21.8123 24.976 21.4629 24.6265 21.4629 24.1955C21.4629 23.7644 21.8123 23.415 22.2434 23.415H22.6336C23.0647 23.415 23.4141 23.0656 23.4141 22.6345V11.7077C23.4141 11.2766 23.0647 10.9272 22.6336 10.9272H22.2434Z" fill="#355E9A"/>
<circle cx="10.9267" cy="9.36619" r="7.02439" fill="#C9DFFF"/>
<mask id="mask1_1789_60009" style="mask-type:alpha" maskUnits="userSpaceOnUse" x="3" y="2" width="15" height="15">
<circle cx="10.9267" cy="9.36619" r="7.02439" fill="white"/>
</mask>
<g mask="url(#mask1_1789_60009)">
<rect x="15.3838" y="9.36621" width="1.17556" height="5.8778" rx="0.58778" transform="rotate(44 15.3838 9.36621)" fill="#3085FF"/>
<rect x="9.60938" y="11.9609" width="1.17556" height="3.52668" rx="0.58778" transform="rotate(-46 9.60938 11.9609)" fill="#3085FF"/>
</g>
<path fill-rule="evenodd" clip-rule="evenodd" d="M17.1705 6.24414H9.3656C7.6414 6.24414 6.24365 7.64189 6.24365 9.36609V22.6344C6.24365 24.3586 7.6414 25.7563 9.3656 25.7563H17.1705C18.8947 25.7563 20.2924 24.3586 20.2924 22.6344V9.36609C20.2924 7.64189 18.8947 6.24414 17.1705 6.24414ZM7.80463 9.36614C7.80463 8.50404 8.5035 7.80516 9.3656 7.80516H17.1705C18.0326 7.80516 18.7315 8.50404 18.7315 9.36614V22.6344C18.7315 23.4965 18.0326 24.1954 17.1705 24.1954H14.6729H9.3656C8.5035 24.1954 7.80463 23.4965 7.80463 22.6344V9.36614Z" fill="#3085FF"/>
<rect x="9.36572" y="18.7319" width="7.80488" height="0.780487" rx="0.390244" fill="#A9CCFF"/>
<rect x="9.36572" y="20.293" width="4.68293" height="0.780487" rx="0.390244" fill="#A9CCFF"/>
</g>
</svg>
