<svg width="32" height="32" viewBox="0 0 32 32" fill="none" xmlns="http://www.w3.org/2000/svg">
<path fill-rule="evenodd" clip-rule="evenodd" d="M8.00798 10.4043L18.8521 6.67033L25.7543 15.8299L19.176 25.2247L8.20814 21.8715L8.00798 10.4043Z" stroke="#C9DFFF" stroke-width="1.60976"/>
<path fill-rule="evenodd" clip-rule="evenodd" d="M10.8143 12.3477L17.7545 9.95798L22.1719 15.8201L17.9618 21.8328L10.9424 19.6867L10.8143 12.3477Z" stroke="#C9DFFF" stroke-width="1.60976"/>
<path fill-rule="evenodd" clip-rule="evenodd" d="M13.8025 14.3774L16.4051 13.4813L18.0616 15.6795L16.4828 17.9343L13.8505 17.1295L13.8025 14.3774Z" stroke="#C9DFFF" stroke-width="1.60976"/>
<path fill-rule="evenodd" clip-rule="evenodd" d="M9.64014 20.5488V11.7073L18.2148 7.02441L22.3977 16L18.7317 23.4147L9.64014 20.5488Z" stroke="#3085FF" stroke-width="1.60976"/>
<circle cx="7.02435" cy="10.1464" r="1.56098" fill="#355E9A"/>
<circle cx="7.02435" cy="21.8535" r="1.56098" fill="#355E9A"/>
<circle cx="19.5121" cy="26.5366" r="1.56098" fill="#355E9A"/>
<circle cx="26.5366" cy="15.6098" r="1.56098" fill="#355E9A"/>
<circle cx="18.7319" cy="5.46332" r="1.56098" fill="#355E9A"/>
</svg>
