<svg width="20" height="16" viewBox="0 0 20 16" fill="none" xmlns="http://www.w3.org/2000/svg">
<path d="M17.5002 0.5H2.50016C1.66683 0.5 0.833496 1.33333 0.833496 2.16667V13.8333C0.833496 14.75 1.5835 15.5 2.50016 15.5H17.5002C18.3335 15.5 19.1668 14.6667 19.1668 13.8333V2.16667C19.1668 1.33333 18.3335 0.5 17.5002 0.5ZM4.69183 11.4917L6.76683 8.825C6.9335 8.61667 7.25016 8.60833 7.41683 8.81667L9.16683 10.925L11.7502 7.6C11.9168 7.38333 12.2502 7.38333 12.4168 7.60833L15.3418 11.5083C15.5502 11.7833 15.3502 12.175 15.0085 12.175H5.01683C4.67516 12.1667 4.47516 11.7667 4.69183 11.4917Z" fill="#7B7B7B"/>
</svg>
