<svg width="84" height="84" viewBox="0 0 84 84" fill="none" xmlns="http://www.w3.org/2000/svg">
<circle cx="42" cy="42" r="42" fill="#355E9A"/>
<g clip-path="url(#clip0)">
<path d="M54.9575 62.5527H30.8299C28.6137 62.5527 26.8086 60.7493 26.8086 58.5314V39.7654C26.8086 37.5475 28.6137 35.7441 30.8299 35.7441H54.9575C57.1737 35.7441 58.9788 37.5475 58.9788 39.7654V58.5314C58.9788 60.7493 57.1737 62.5527 54.9575 62.5527ZM30.8299 38.425C30.0917 38.425 29.4894 39.0255 29.4894 39.7654V58.5314C29.4894 59.2713 30.0917 59.8718 30.8299 59.8718H54.9575C55.6957 59.8718 56.298 59.2713 56.298 58.5314V39.7654C56.298 39.0255 55.6957 38.425 54.9575 38.425H30.8299Z" fill="white"/>
<path d="M52.2766 38.4251C51.5366 38.4251 50.9361 37.8246 50.9361 37.0847V30.3826C50.9361 25.9485 47.3277 22.34 42.8936 22.34C38.4594 22.34 34.851 25.9485 34.851 30.3826V37.0847C34.851 37.8246 34.2505 38.4251 33.5106 38.4251C32.7707 38.4251 32.1702 37.8246 32.1702 37.0847V30.3826C32.1702 24.4686 36.9796 19.6592 42.8936 19.6592C48.8075 19.6592 53.617 24.4686 53.617 30.3826V37.0847C53.617 37.8246 53.0165 38.4251 52.2766 38.4251Z" fill="white"/>
<path d="M42.8936 50.0425C40.9222 50.0425 39.3191 48.4393 39.3191 46.468C39.3191 44.4967 40.9222 42.8936 42.8936 42.8936C44.8649 42.8936 46.468 44.4967 46.468 46.468C46.468 48.4393 44.8649 50.0425 42.8936 50.0425ZM42.8936 45.5744C42.4021 45.5744 41.9999 45.9747 41.9999 46.468C41.9999 46.9613 42.4021 47.3616 42.8936 47.3616C43.385 47.3616 43.7872 46.9613 43.7872 46.468C43.7872 45.9747 43.385 45.5744 42.8936 45.5744Z" fill="white"/>
<path d="M42.8936 55.4043C42.1537 55.4043 41.5532 54.8038 41.5532 54.0639V49.149C41.5532 48.4091 42.1537 47.8086 42.8936 47.8086C43.6336 47.8086 44.2341 48.4091 44.2341 49.149V54.0639C44.2341 54.8038 43.6336 55.4043 42.8936 55.4043Z" fill="white"/>
</g>
<defs>
<clipPath id="clip0">
<rect width="42.8936" height="42.8936" fill="white" transform="translate(21.4468 19.6592)"/>
</clipPath>
</defs>
</svg>
