<svg width="40" height="40" viewBox="0 0 40 40" fill="none" xmlns="http://www.w3.org/2000/svg">
<path fill-rule="evenodd" clip-rule="evenodd" d="M10.0105 13.0052L23.5656 8.33775L32.1934 19.7872L23.9705 31.5307L10.2607 27.3392L10.0105 13.0052Z" stroke="#BAC4C9" stroke-width="2"/>
<path fill-rule="evenodd" clip-rule="evenodd" d="M13.518 15.4346L22.1933 12.4475L27.715 19.7751L22.4524 27.291L13.6781 24.6084L13.518 15.4346Z" stroke="#BAC4C9" stroke-width="2"/>
<path fill-rule="evenodd" clip-rule="evenodd" d="M17.253 17.9718L20.5062 16.8516L22.5769 19.5995L20.6034 22.4179L17.313 21.412L17.253 17.9718Z" stroke="#BAC4C9" stroke-width="2"/>
<path fill-rule="evenodd" clip-rule="evenodd" d="M12.0503 25.6859V14.6341L22.7686 8.78049L27.9972 20L23.4147 29.2683L12.0503 25.6859Z" stroke="#8F9BA1" stroke-width="2"/>
<ellipse cx="8.78057" cy="12.6829" rx="1.95122" ry="1.95122" fill="#79878D"/>
<ellipse cx="8.78057" cy="27.3171" rx="1.95122" ry="1.95122" fill="#79878D"/>
<circle cx="24.3902" cy="33.1707" r="1.95122" fill="#79878D"/>
<ellipse cx="33.1707" cy="19.5122" rx="1.95122" ry="1.95122" fill="#79878D"/>
<circle cx="23.4146" cy="6.82927" r="1.95122" fill="#79878D"/>
</svg>
