<svg width="25" height="30" viewBox="0 0 25 30" fill="none" xmlns="http://www.w3.org/2000/svg">
<g clip-path="url(#clip0)">
<path fill-rule="evenodd" clip-rule="evenodd" d="M5.7561 0.853653H18.9268C21.8364 0.853653 24.1951 3.21235 24.1951 6.12195V24.561C24.1951 27.4706 21.8364 29.8293 18.9268 29.8293H5.7561C2.8465 29.8293 0.487808 27.4706 0.487808 24.561V6.12195C0.487808 3.21235 2.8465 0.853653 5.7561 0.853653ZM21.561 6.12195C21.561 4.66715 20.3816 3.4878 18.9268 3.4878H5.7561C4.3013 3.4878 3.12195 4.66715 3.12195 6.12195V24.561C3.12195 26.0158 4.3013 27.1951 5.7561 27.1951H18.9268C20.3816 27.1951 21.561 26.0158 21.561 24.561V6.12195Z" fill="#3085FF"/>
<path d="M6 17C6 15.8954 6.89543 15 8 15H24V23C24 24.1046 23.1046 25 22 25H8C6.89543 25 6 24.1046 6 23V17Z" fill="#3085FF"/>
<path d="M10.2648 21.8537V20.4317H11.2848C12.1488 20.4317 12.6288 19.8377 12.6288 19.1417C12.6288 18.4397 12.1548 17.8517 11.2848 17.8517H9.41285V21.8537H10.2648ZM11.1708 19.6817H10.2648V18.6017H11.1708C11.5068 18.6017 11.7588 18.8057 11.7588 19.1417C11.7588 19.4717 11.5068 19.6817 11.1708 19.6817ZM14.735 21.8537C15.989 21.8537 16.859 21.0617 16.859 19.8557C16.859 18.6497 15.989 17.8517 14.735 17.8517H13.157V21.8537H14.735ZM14.735 21.1037H14.009V18.6017H14.735C15.557 18.6017 15.989 19.1477 15.989 19.8557C15.989 20.5337 15.527 21.1037 14.735 21.1037ZM18.3156 21.8537V20.1977H20.2536V19.4477H18.3156V18.6017H20.2956V17.8517H17.4636V21.8537H18.3156Z" fill="white"/>
<rect x="5.7561" y="6.12195" width="13.1707" height="1.31707" rx="0.658537" fill="#A9CCFF"/>
<rect x="5.7561" y="8.75609" width="13.1707" height="1.31707" rx="0.658536" fill="#A9CCFF"/>
<rect x="5.7561" y="11.3902" width="9.21951" height="1.31707" rx="0.658536" fill="#A9CCFF"/>
</g>
<defs>
<clipPath id="clip0">
<rect width="23.7073" height="28.9756" fill="white" transform="translate(0.487808 0.853653)"/>
</clipPath>
</defs>
</svg>
