<svg width="48" height="48" viewBox="0 0 48 48" fill="none" xmlns="http://www.w3.org/2000/svg">
<mask id="mask0" mask-type="alpha" maskUnits="userSpaceOnUse" x="24" y="15" width="15" height="19">
<rect x="24.5854" y="15.2195" width="14.0488" height="18.7317" fill="white"/>
</mask>
<g mask="url(#mask0)">
<ellipse cx="33.9513" cy="21.0732" rx="9.36585" ry="9.36585" fill="#C9DFFF"/>
<mask id="mask1" mask-type="alpha" maskUnits="userSpaceOnUse" x="24" y="11" width="20" height="20">
<ellipse cx="33.9513" cy="21.0732" rx="9.36585" ry="9.36585" fill="white"/>
</mask>
<g mask="url(#mask1)">
<circle cx="30.4391" cy="29.2683" r="5.85366" fill="#9EC0F1"/>
<circle cx="30.4391" cy="21.0732" r="2.34146" fill="#3085FF"/>
</g>
</g>
<rect x="14.0488" y="19.9024" width="8.19512" height="1.17073" rx="0.585365" fill="#355E9A"/>
<rect x="14.0488" y="28.0976" width="5.85366" height="1.17073" rx="0.585366" fill="#355E9A"/>
<rect x="21.0732" y="28.0976" width="2.34146" height="1.17073" rx="0.585366" fill="#355E9A"/>
<rect x="14.0488" y="22.2439" width="5.85366" height="1.17073" rx="0.585366" fill="#355E9A"/>
<path d="M10.5366 28.6829V17.561C10.5366 16.2678 11.5849 15.2195 12.8781 15.2195H35.122C36.4151 15.2195 37.4635 16.2678 37.4635 17.561V31.6098C37.4635 32.9029 36.4151 33.9512 35.122 33.9512H15.2195H12.8781" stroke="#3085FF" stroke-width="2" stroke-linecap="round" stroke-linejoin="round"/>
</svg>
