<svg width="40" height="40" viewBox="0 0 40 40" fill="none" xmlns="http://www.w3.org/2000/svg">
<path d="M10.7317 13.6585C10.7317 14.1974 10.2949 14.6341 9.75613 14.6341C9.21731 14.6341 8.78052 14.1974 8.78052 13.6585V11.7073C8.78052 10.0909 10.0909 8.78049 11.7073 8.78049H13.6586C14.1974 8.78049 14.6342 9.21728 14.6342 9.7561C14.6342 10.2949 14.1974 10.7317 13.6586 10.7317H11.7073C11.1685 10.7317 10.7317 11.1685 10.7317 11.7073V13.6585Z" fill="#8F9BA1"/>
<path d="M10.7317 25.3658C10.7317 24.827 10.2949 24.3902 9.75613 24.3902C9.21731 24.3902 8.78052 24.827 8.78052 25.3658V27.3171C8.78052 28.9335 10.0909 30.2439 11.7073 30.2439H13.6586C14.1974 30.2439 14.6342 29.8071 14.6342 29.2683C14.6342 28.7295 14.1974 28.2927 13.6586 28.2927H11.7073C11.1685 28.2927 10.7317 27.8559 10.7317 27.3171V25.3658Z" fill="#8F9BA1"/>
<path d="M29.2683 25.3658C29.2683 24.827 29.7051 24.3902 30.2439 24.3902C30.7827 24.3902 31.2195 24.827 31.2195 25.3658V27.3171C31.2195 28.9335 29.9091 30.2439 28.2927 30.2439H26.3414C25.8026 30.2439 25.3658 29.8071 25.3658 29.2683C25.3658 28.7295 25.8026 28.2927 26.3414 28.2927H28.2927C28.8315 28.2927 29.2683 27.8559 29.2683 27.3171V25.3658Z" fill="#8F9BA1"/>
<path d="M29.2683 13.6585C29.2683 14.1974 29.7051 14.6341 30.2439 14.6341C30.7827 14.6341 31.2195 14.1974 31.2195 13.6585V11.7073C31.2195 10.0909 29.9091 8.78049 28.2927 8.78049H26.3414C25.8026 8.78049 25.3658 9.21728 25.3658 9.7561C25.3658 10.2949 25.8026 10.7317 26.3414 10.7317H28.2927C28.8315 10.7317 29.2683 11.1685 29.2683 11.7073V13.6585Z" fill="#8F9BA1"/>
<rect x="13.6829" y="13.6829" width="4.82927" height="4.82927" rx="1" fill="#D8D8D8" stroke="#79878D" stroke-width="2"/>
<path d="M14.6342 21.4634H16.8022C17.7601 21.4634 18.5366 22.1623 18.5366 23.0244V24.5854V25.3658" stroke="#79878D" stroke-width="2" stroke-linecap="round"/>
<rect x="20.4878" y="20.4878" width="6.82927" height="6.82927" rx="2" fill="#BAC4C9"/>
<rect x="20.4878" y="12.6829" width="6.82927" height="6.82927" rx="2" fill="#79878D"/>
</svg>
