<svg width="40" height="40" viewBox="0 0 40 40" fill="none" xmlns="http://www.w3.org/2000/svg">
<rect x="9.7561" y="27.3171" width="19.5122" height="1.95122" rx="0.97561" fill="#79878D"/>
<rect x="9.7561" y="22.439" width="1.95122" height="6.82927" rx="0.975609" fill="#79878D"/>
<path d="M26.3416 14.6341C26.3416 14.0953 26.7783 13.6585 27.3172 13.6585C27.856 13.6585 28.2928 14.0953 28.2928 14.6341V24.3902C28.2928 24.9291 27.856 25.3659 27.3172 25.3659C26.7783 25.3659 26.3416 24.9291 26.3416 24.3902V14.6341Z" fill="#8F9BA1"/>
<ellipse cx="15.122" cy="14.1463" rx="5.36585" ry="5.36585" fill="#BAC4C9"/>
<mask id="mask0" mask-type="alpha" maskUnits="userSpaceOnUse" x="9" y="8" width="12" height="12">
<ellipse cx="15.122" cy="14.1463" rx="5.36585" ry="5.36585" fill="white"/>
</mask>
<g mask="url(#mask0)">
<path d="M14.96 14.664L20.0018 12.4193L19.6154 10.7034C19.6154 10.7034 17.9358 8.6238 17.0732 8.29268C16.2107 7.96157 14.606 8.78049 14.606 8.78049L14.96 14.664Z" fill="#8F9BA1"/>
</g>
<path d="M22.439 17.561C22.439 17.0222 22.8758 16.5854 23.4146 16.5854C23.9534 16.5854 24.3902 17.0222 24.3902 17.561V24.3902C24.3902 24.9291 23.9534 25.3659 23.4146 25.3659C22.8758 25.3659 22.439 24.9291 22.439 24.3902V17.561Z" fill="#8F9BA1"/>
<path d="M18.5366 21.4634C18.5366 20.9246 18.9734 20.4878 19.5122 20.4878C20.051 20.4878 20.4878 20.9246 20.4878 21.4634V24.3902C20.4878 24.9291 20.051 25.3658 19.5122 25.3658C18.9734 25.3658 18.5366 24.9291 18.5366 24.3902V21.4634Z" fill="#8F9BA1"/>
<path d="M14.634 23.4146C14.634 22.8758 15.0708 22.439 15.6096 22.439C16.1485 22.439 16.5853 22.8758 16.5853 23.4146V24.3902C16.5853 24.9291 16.1485 25.3659 15.6096 25.3659C15.0708 25.3659 14.634 24.9291 14.634 24.3902V23.4146Z" fill="#8F9BA1"/>
</svg>
